                                                                        S0000001
,,31HOpen CASCADE IGES processor 7.7,13HFilename.iges,                  G0000001
16HOpen CASCADE 7.7,31HOpen CASCADE IGES processor 7.7,32,308,15,308,15,G0000002
,1.,2,2HMM,1,0.01,15H20250915.112150,1E-07,4.864,6HSYSTEM,,11,0,        G0000003
15H20250915.112150,;                                                    G0000004
     402       1       0       0       0       0       0       000000000D0000001
     402       0       0       1       1                    part        D0000002
     402       2       0       0       0       0       0       000020000D0000003
     402       0       0       1       1                               0D0000004
     144       3       0       0       0       0       0       000020000D0000005
     144       0    -667       1       0                               0D0000006
     108       4       0       0       0       0       0       000010000D0000007
     108       0       0       1       0                               0D0000008
     142       5       0       0       0       0       0       000010500D0000009
     142       0       0       1       0                               0D0000010
     102       6       0       0       0       0       0       000010000D0000011
     102       0       0       1       0                               0D0000012
     110       7       0       0       0       0       0       000010000D0000013
     110       0       0       1       0                               0D0000014
     110       8       0       0       0       0       0       000010000D0000015
     110       0       0       1       0                               0D0000016
     110       9       0       0       0       0       0       000010000D0000017
     110       0       0       1       0                               0D0000018
     110      10       0       0       0       0       0       000010000D0000019
     110       0       0       1       0                               0D0000020
     144      11       0       0       0       0       0       000020000D0000021
     144       0    -667       1       0                               0D0000022
     108      12       0       0       0       0       0       000010000D0000023
     108       0       0       1       0                               0D0000024
     142      13       0       0       0       0       0       000010500D0000025
     142       0       0       1       0                               0D0000026
     102      14       0       0       0       0       0       000010000D0000027
     102       0       0       1       0                               0D0000028
     110      15       0       0       0       0       0       000010000D0000029
     110       0       0       1       0                               0D0000030
     110      16       0       0       0       0       0       000010000D0000031
     110       0       0       1       0                               0D0000032
     110      17       0       0       0       0       0       000010000D0000033
     110       0       0       1       0                               0D0000034
     110      18       0       0       0       0       0       000010000D0000035
     110       0    -667       1       0                               0D0000036
     144      19       0       0       0       0       0       000020000D0000037
     144       0    -667       1       0                               0D0000038
     108      20       0       0       0       0       0       000010000D0000039
     108       0       0       1       0                               0D0000040
     142      21       0       0       0       0       0       000010500D0000041
     142       0       0       1       0                               0D0000042
     102      22       0       0       0       0       0       000010000D0000043
     102       0       0       1       0                               0D0000044
     110      23       0       0       0       0       0       000010000D0000045
     110       0       0       1       0                               0D0000046
     110      24       0       0       0       0       0       000010000D0000047
     110       0       0       1       0                               0D0000048
     110      25       0       0       0       0       0       000010000D0000049
     110       0       0       1       0                               0D0000050
     110      26       0       0       0       0       0       000010000D0000051
     110       0    -667       1       0                               0D0000052
     144      27       0       0       0       0       0       000020000D0000053
     144       0    -667       1       0                               0D0000054
     108      28       0       0       0       0       0       000010000D0000055
     108       0       0       1       0                               0D0000056
     142      29       0       0       0       0       0       000010500D0000057
     142       0       0       1       0                               0D0000058
     102      30       0       0       0       0       0       000010000D0000059
     102       0       0       1       0                               0D0000060
     110      31       0       0       0       0       0       000010000D0000061
     110       0       0       1       0                               0D0000062
     110      32       0       0       0       0       0       000010000D0000063
     110       0    -667       1       0                               0D0000064
     110      33       0       0       0       0       0       000010000D0000065
     110       0       0       1       0                               0D0000066
     110      34       0       0       0       0       0       000010000D0000067
     110       0    -667       1       0                               0D0000068
     144      35       0       0       0       0       0       000020000D0000069
     144       0    -667       1       0                               0D0000070
     108      36       0       0       0       0       0       000010000D0000071
     108       0       0       1       0                               0D0000072
     142      37       0       0       0       0       0       000010500D0000073
     142       0       0       1       0                               0D0000074
     102      38       0       0       0       0       0       000010000D0000075
     102       0       0       1       0                               0D0000076
     110      39       0       0       0       0       0       000010000D0000077
     110       0    -667       1       0                               0D0000078
     110      40       0       0       0       0       0       000010000D0000079
     110       0    -667       1       0                               0D0000080
     110      41       0       0       0       0       0       000010000D0000081
     110       0    -667       1       0                               0D0000082
     110      42       0       0       0       0       0       000010000D0000083
     110       0    -667       1       0                               0D0000084
     144      43       0       0       0       0       0       000020000D0000085
     144       0    -667       1       0                               0D0000086
     108      44       0       0       0       0       0       000010000D0000087
     108       0       0       1       0                               0D0000088
     142      45       0       0       0       0       0       000010500D0000089
     142       0       0       1       0                               0D0000090
     102      46       0       0       0       0       0       000010000D0000091
     102       0       0       1       0                               0D0000092
     110      47       0       0       0       0       0       000010000D0000093
     110       0    -667       1       0                               0D0000094
     110      48       0       0       0       0       0       000010000D0000095
     110       0    -667       1       0                               0D0000096
     110      49       0       0       0       0       0       000010000D0000097
     110       0    -667       1       0                               0D0000098
     110      50       0       0       0       0       0       000010000D0000099
     110       0    -667       1       0                               0D0000100
     402      51       0       0       0       0       0       000020000D0000101
     402       0       0       1       1                               0D0000102
     144      52       0       0       0       0       0       000020000D0000103
     144       0    -669       1       0                               0D0000104
     108      53       0       0       0       0       0       000010000D0000105
     108       0       0       1       0                               0D0000106
     142      54       0       0       0       0       0       000010500D0000107
     142       0       0       1       0                               0D0000108
     102      55       0       0       0       0       0       000010000D0000109
     102       0       0       1       0                               0D0000110
     110      56       0       0       0       0       0       000010000D0000111
     110       0       0       1       0                               0D0000112
     110      57       0       0       0       0       0       000010000D0000113
     110       0       0       1       0                               0D0000114
     110      58       0       0       0       0       0       000010000D0000115
     110       0       0       1       0                               0D0000116
     110      59       0       0       0       0       0       000010000D0000117
     110       0       0       1       0                               0D0000118
     144      60       0       0       0       0       0       000020000D0000119
     144       0    -669       1       0                               0D0000120
     108      61       0       0       0       0       0       000010000D0000121
     108       0       0       1       0                               0D0000122
     142      62       0       0       0       0       0       000010500D0000123
     142       0       0       1       0                               0D0000124
     102      63       0       0       0       0       0       000010000D0000125
     102       0       0       1       0                               0D0000126
     110      64       0       0       0       0       0       000010000D0000127
     110       0    -669       1       0                               0D0000128
     110      65       0       0       0       0       0       000010000D0000129
     110       0       0       1       0                               0D0000130
     110      66       0       0       0       0       0       000010000D0000131
     110       0       0       1       0                               0D0000132
     110      67       0       0       0       0       0       000010000D0000133
     110       0       0       1       0                               0D0000134
     144      68       0       0       0       0       0       000020000D0000135
     144       0    -669       1       0                               0D0000136
     108      69       0       0       0       0       0       000010000D0000137
     108       0       0       1       0                               0D0000138
     142      70       0       0       0       0       0       000010500D0000139
     142       0       0       1       0                               0D0000140
     102      71       0       0       0       0       0       000010000D0000141
     102       0       0       1       0                               0D0000142
     110      72       0       0       0       0       0       000010000D0000143
     110       0    -669       1       0                               0D0000144
     110      73       0       0       0       0       0       000010000D0000145
     110       0       0       1       0                               0D0000146
     110      74       0       0       0       0       0       000010000D0000147
     110       0       0       1       0                               0D0000148
     110      75       0       0       0       0       0       000010000D0000149
     110       0       0       1       0                               0D0000150
     144      76       0       0       0       0       0       000020000D0000151
     144       0    -669       1       0                               0D0000152
     108      77       0       0       0       0       0       000010000D0000153
     108       0       0       1       0                               0D0000154
     142      78       0       0       0       0       0       000010500D0000155
     142       0       0       1       0                               0D0000156
     102      79       0       0       0       0       0       000010000D0000157
     102       0       0       1       0                               0D0000158
     110      80       0       0       0       0       0       000010000D0000159
     110       0    -669       1       0                               0D0000160
     110      81       0       0       0       0       0       000010000D0000161
     110       0       0       1       0                               0D0000162
     110      82       0       0       0       0       0       000010000D0000163
     110       0    -669       1       0                               0D0000164
     110      83       0       0       0       0       0       000010000D0000165
     110       0       0       1       0                               0D0000166
     144      84       0       0       0       0       0       000020000D0000167
     144       0    -669       1       0                               0D0000168
     108      85       0       0       0       0       0       000010000D0000169
     108       0       0       1       0                               0D0000170
     142      86       0       0       0       0       0       000010500D0000171
     142       0       0       1       0                               0D0000172
     102      87       0       0       0       0       0       000010000D0000173
     102       0       0       1       0                               0D0000174
     110      88       0       0       0       0       0       000010000D0000175
     110       0    -669       1       0                               0D0000176
     110      89       0       0       0       0       0       000010000D0000177
     110       0    -669       1       0                               0D0000178
     110      90       0       0       0       0       0       000010000D0000179
     110       0       0       1       0                               0D0000180
     110      91       0       0       0       0       0       000010000D0000181
     110       0       0       1       0                               0D0000182
     110      92       0       0       0       0       0       000010000D0000183
     110       0       0       1       0                               0D0000184
     110      93       0       0       0       0       0       000010000D0000185
     110       0       0       1       0                               0D0000186
     144      94       0       0       0       0       0       000020000D0000187
     144       0    -669       1       0                               0D0000188
     108      95       0       0       0       0       0       000010000D0000189
     108       0       0       1       0                               0D0000190
     142      96       0       0       0       0       0       000010500D0000191
     142       0       0       1       0                               0D0000192
     102      97       0       0       0       0       0       000010000D0000193
     102       0       0       1       0                               0D0000194
     110      98       0       0       0       0       0       000010000D0000195
     110       0    -669       1       0                               0D0000196
     110      99       0       0       0       0       0       000010000D0000197
     110       0       0       1       0                               0D0000198
     110     100       0       0       0       0       0       000010000D0000199
     110       0       0       1       0                               0D0000200
     110     101       0       0       0       0       0       000010000D0000201
     110       0    -669       1       0                               0D0000202
     110     102       0       0       0       0       0       000010000D0000203
     110       0    -669       1       0                               0D0000204
     110     103       0       0       0       0       0       000010000D0000205
     110       0    -669       1       0                               0D0000206
     144     104       0       0       0       0       0       000020000D0000207
     144       0    -669       1       0                               0D0000208
     108     105       0       0       0       0       0       000010000D0000209
     108       0       0       1       0                               0D0000210
     142     106       0       0       0       0       0       000010500D0000211
     142       0       0       1       0                               0D0000212
     102     107       0       0       0       0       0       000010000D0000213
     102       0       0       1       0                               0D0000214
     110     108       0       0       0       0       0       000010000D0000215
     110       0    -669       1       0                               0D0000216
     110     109       0       0       0       0       0       000010000D0000217
     110       0       0       1       0                               0D0000218
     110     110       0       0       0       0       0       000010000D0000219
     110       0       0       1       0                               0D0000220
     110     111       0       0       0       0       0       000010000D0000221
     110       0       0       1       0                               0D0000222
     110     112       0       0       0       0       0       000010000D0000223
     110       0       0       1       0                               0D0000224
     110     113       0       0       0       0       0       000010000D0000225
     110       0    -669       1       0                               0D0000226
     144     114       0       0       0       0       0       000020000D0000227
     144       0    -669       1       0                               0D0000228
     108     115       0       0       0       0       0       000010000D0000229
     108       0       0       1       0                               0D0000230
     142     116       0       0       0       0       0       000010500D0000231
     142       0       0       1       0                               0D0000232
     102     117       0       0       0       0       0       000010000D0000233
     102       0       0       1       0                               0D0000234
     110     118       0       0       0       0       0       000010000D0000235
     110       0    -669       1       0                               0D0000236
     110     119       0       0       0       0       0       000010000D0000237
     110       0    -669       1       0                               0D0000238
     110     120       0       0       0       0       0       000010000D0000239
     110       0    -669       1       0                               0D0000240
     110     121       0       0       0       0       0       000010000D0000241
     110       0    -669       1       0                               0D0000242
     110     122       0       0       0       0       0       000010000D0000243
     110       0       0       1       0                               0D0000244
     110     123       0       0       0       0       0       000010000D0000245
     110       0       0       1       0                               0D0000246
     144     124       0       0       0       0       0       000020000D0000247
     144       0    -669       1       0                               0D0000248
     108     125       0       0       0       0       0       000010000D0000249
     108       0       0       1       0                               0D0000250
     142     126       0       0       0       0       0       000010500D0000251
     142       0       0       1       0                               0D0000252
     102     127       0       0       0       0       0       000010000D0000253
     102       0       0       1       0                               0D0000254
     110     128       0       0       0       0       0       000010000D0000255
     110       0       0       1       0                               0D0000256
     110     129       0       0       0       0       0       000010000D0000257
     110       0    -669       1       0                               0D0000258
     110     130       0       0       0       0       0       000010000D0000259
     110       0       0       1       0                               0D0000260
     110     131       0       0       0       0       0       000010000D0000261
     110       0    -669       1       0                               0D0000262
     144     132       0       0       0       0       0       000020000D0000263
     144       0    -669       1       0                               0D0000264
     108     133       0       0       0       0       0       000010000D0000265
     108       0       0       1       0                               0D0000266
     142     134       0       0       0       0       0       000010500D0000267
     142       0       0       1       0                               0D0000268
     102     135       0       0       0       0       0       000010000D0000269
     102       0       0       1       0                               0D0000270
     110     136       0       0       0       0       0       000010000D0000271
     110       0       0       1       0                               0D0000272
     110     137       0       0       0       0       0       000010000D0000273
     110       0    -669       1       0                               0D0000274
     110     138       0       0       0       0       0       000010000D0000275
     110       0       0       1       0                               0D0000276
     110     139       0       0       0       0       0       000010000D0000277
     110       0    -669       1       0                               0D0000278
     144     140       0       0       0       0       0       000020000D0000279
     144       0    -669       1       0                               0D0000280
     108     141       0       0       0       0       0       000010000D0000281
     108       0       0       1       0                               0D0000282
     142     142       0       0       0       0       0       000010500D0000283
     142       0       0       1       0                               0D0000284
     102     143       0       0       0       0       0       000010000D0000285
     102       0       0       1       0                               0D0000286
     110     144       0       0       0       0       0       000010000D0000287
     110       0    -669       1       0                               0D0000288
     110     145       0       0       0       0       0       000010000D0000289
     110       0    -669       1       0                               0D0000290
     110     146       0       0       0       0       0       000010000D0000291
     110       0    -669       1       0                               0D0000292
     110     147       0       0       0       0       0       000010000D0000293
     110       0    -669       1       0                               0D0000294
     144     148       0       0       0       0       0       000020000D0000295
     144       0    -669       1       0                               0D0000296
     108     149       0       0       0       0       0       000010000D0000297
     108       0       0       1       0                               0D0000298
     142     150       0       0       0       0       0       000010500D0000299
     142       0       0       1       0                               0D0000300
     102     151       0       0       0       0       0       000010000D0000301
     102       0       0       1       0                               0D0000302
     110     152       0       0       0       0       0       000010000D0000303
     110       0    -669       1       0                               0D0000304
     110     153       0       0       0       0       0       000010000D0000305
     110       0    -669       1       0                               0D0000306
     110     154       0       0       0       0       0       000010000D0000307
     110       0    -669       1       0                               0D0000308
     110     155       0       0       0       0       0       000010000D0000309
     110       0    -669       1       0                               0D0000310
     402     156       0       0       0       0       0       000020000D0000311
     402       0       0       1       1                               0D0000312
     144     157       0       0       0       0       0       000020000D0000313
     144       0    -671       1       0                               0D0000314
     108     158       0       0       0       0       0       000010000D0000315
     108       0       0       1       0                               0D0000316
     142     159       0       0       0       0       0       000010500D0000317
     142       0       0       1       0                               0D0000318
     102     160       0       0       0       0       0       000010000D0000319
     102       0       0       1       0                               0D0000320
     110     161       0       0       0       0       0       000010000D0000321
     110       0       0       1       0                               0D0000322
     110     162       0       0       0       0       0       000010000D0000323
     110       0       0       1       0                               0D0000324
     110     163       0       0       0       0       0       000010000D0000325
     110       0       0       1       0                               0D0000326
     110     164       0       0       0       0       0       000010000D0000327
     110       0       0       1       0                               0D0000328
     144     165       0       0       0       0       0       000020000D0000329
     144       0    -671       1       0                               0D0000330
     108     166       0       0       0       0       0       000010000D0000331
     108       0       0       1       0                               0D0000332
     142     167       0       0       0       0       0       000010500D0000333
     142       0       0       1       0                               0D0000334
     102     168       0       0       0       0       0       000010000D0000335
     102       0       0       1       0                               0D0000336
     110     169       0       0       0       0       0       000010000D0000337
     110       0       0       1       0                               0D0000338
     110     170       0       0       0       0       0       000010000D0000339
     110       0       0       1       0                               0D0000340
     110     171       0       0       0       0       0       000010000D0000341
     110       0       0       1       0                               0D0000342
     110     172       0       0       0       0       0       000010000D0000343
     110       0       0       1       0                               0D0000344
     144     173       0       0       0       0       0       000020000D0000345
     144       0    -671       1       0                               0D0000346
     108     174       0       0       0       0       0       000010000D0000347
     108       0       0       1       0                               0D0000348
     142     175       0       0       0       0       0       000010500D0000349
     142       0       0       1       0                               0D0000350
     102     176       0       0       0       0       0       000010000D0000351
     102       0       0       1       0                               0D0000352
     110     177       0       0       0       0       0       000010000D0000353
     110       0       0       1       0                               0D0000354
     110     178       0       0       0       0       0       000010000D0000355
     110       0       0       1       0                               0D0000356
     110     179       0       0       0       0       0       000010000D0000357
     110       0    -671       1       0                               0D0000358
     110     180       0       0       0       0       0       000010000D0000359
     110       0       0       1       0                               0D0000360
     144     181       0       0       0       0       0       000020000D0000361
     144       0    -671       1       0                               0D0000362
     108     182       0       0       0       0       0       000010000D0000363
     108       0       0       1       0                               0D0000364
     142     183       0       0       0       0       0       000010500D0000365
     142       0       0       1       0                               0D0000366
     102     184       0       0       0       0       0       000010000D0000367
     102       0       0       1       0                               0D0000368
     110     185       0       0       0       0       0       000010000D0000369
     110       0       0       1       0                               0D0000370
     110     186       0       0       0       0       0       000010000D0000371
     110       0       0       1       0                               0D0000372
     110     187       0       0       0       0       0       000010000D0000373
     110       0    -671       1       0                               0D0000374
     110     188       0       0       0       0       0       000010000D0000375
     110       0       0       1       0                               0D0000376
     144     189       0       0       0       0       0       000020000D0000377
     144       0    -671       1       0                               0D0000378
     108     190       0       0       0       0       0       000010000D0000379
     108       0       0       1       0                               0D0000380
     142     191       0       0       0       0       0       000010500D0000381
     142       0       0       1       0                               0D0000382
     102     192       0       0       0       0       0       000010000D0000383
     102       0       0       1       0                               0D0000384
     110     193       0       0       0       0       0       000010000D0000385
     110       0       0       1       0                               0D0000386
     110     194       0       0       0       0       0       000010000D0000387
     110       0       0       1       0                               0D0000388
     110     195       0       0       0       0       0       000010000D0000389
     110       0    -671       1       0                               0D0000390
     110     196       0       0       0       0       0       000010000D0000391
     110       0       0       1       0                               0D0000392
     144     197       0       0       0       0       0       000020000D0000393
     144       0    -671       1       0                               0D0000394
     108     198       0       0       0       0       0       000010000D0000395
     108       0       0       1       0                               0D0000396
     142     199       0       0       0       0       0       000010500D0000397
     142       0       0       1       0                               0D0000398
     102     200       0       0       0       0       0       000010000D0000399
     102       0       0       1       0                               0D0000400
     110     201       0       0       0       0       0       000010000D0000401
     110       0    -671       1       0                               0D0000402
     110     202       0       0       0       0       0       000010000D0000403
     110       0       0       1       0                               0D0000404
     110     203       0       0       0       0       0       000010000D0000405
     110       0       0       1       0                               0D0000406
     110     204       0       0       0       0       0       000010000D0000407
     110       0       0       1       0                               0D0000408
     144     205       0       0       0       0       0       000020000D0000409
     144       0    -671       1       0                               0D0000410
     108     206       0       0       0       0       0       000010000D0000411
     108       0       0       1       0                               0D0000412
     142     207       0       0       0       0       0       000010500D0000413
     142       0       0       1       0                               0D0000414
     102     208       0       0       0       0       0       000010000D0000415
     102       0       0       1       0                               0D0000416
     110     209       0       0       0       0       0       000010000D0000417
     110       0       0       1       0                               0D0000418
     110     210       0       0       0       0       0       000010000D0000419
     110       0    -671       1       0                               0D0000420
     110     211       0       0       0       0       0       000010000D0000421
     110       0       0       1       0                               0D0000422
     110     212       0       0       0       0       0       000010000D0000423
     110       0    -671       1       0                               0D0000424
     144     213       0       0       0       0       0       000020000D0000425
     144       0    -671       1       0                               0D0000426
     108     214       0       0       0       0       0       000010000D0000427
     108       0       0       1       0                               0D0000428
     142     215       0       0       0       0       0       000010500D0000429
     142       0       0       1       0                               0D0000430
     102     216       0       0       0       0       0       000010000D0000431
     102       0       0       1       0                               0D0000432
     110     217       0       0       0       0       0       000010000D0000433
     110       0       0       1       0                               0D0000434
     110     218       0       0       0       0       0       000010000D0000435
     110       0    -671       1       0                               0D0000436
     110     219       0       0       0       0       0       000010000D0000437
     110       0       0       1       0                               0D0000438
     110     220       0       0       0       0       0       000010000D0000439
     110       0    -671       1       0                               0D0000440
     144     221       0       0       0       0       0       000020000D0000441
     144       0    -671       1       0                               0D0000442
     108     222       0       0       0       0       0       000010000D0000443
     108       0       0       1       0                               0D0000444
     142     223       0       0       0       0       0       000010500D0000445
     142       0       0       1       0                               0D0000446
     102     224       0       0       0       0       0       000010000D0000447
     102       0       0       1       0                               0D0000448
     110     225       0       0       0       0       0       000010000D0000449
     110       0    -671       1       0                               0D0000450
     110     226       0       0       0       0       0       000010000D0000451
     110       0    -671       1       0                               0D0000452
     110     227       0       0       0       0       0       000010000D0000453
     110       0    -671       1       0                               0D0000454
     110     228       0       0       0       0       0       000010000D0000455
     110       0    -671       1       0                               0D0000456
     110     229       0       0       0       0       0       000010000D0000457
     110       0    -671       1       0                               0D0000458
     110     230       0       0       0       0       0       000010000D0000459
     110       0    -671       1       0                               0D0000460
     110     231       0       0       0       0       0       000010000D0000461
     110       0    -671       1       0                               0D0000462
     110     232       0       0       0       0       0       000010000D0000463
     110       0    -671       1       0                               0D0000464
     144     233       0       0       0       0       0       000020000D0000465
     144       0    -671       1       0                               0D0000466
     108     234       0       0       0       0       0       000010000D0000467
     108       0       0       1       0                               0D0000468
     142     235       0       0       0       0       0       000010500D0000469
     142       0       0       1       0                               0D0000470
     102     236       0       0       0       0       0       000010000D0000471
     102       0       0       1       0                               0D0000472
     110     237       0       0       0       0       0       000010000D0000473
     110       0    -671       1       0                               0D0000474
     110     238       0       0       0       0       0       000010000D0000475
     110       0    -671       1       0                               0D0000476
     110     239       0       0       0       0       0       000010000D0000477
     110       0    -671       1       0                               0D0000478
     110     240       0       0       0       0       0       000010000D0000479
     110       0    -671       1       0                               0D0000480
     110     241       0       0       0       0       0       000010000D0000481
     110       0    -671       1       0                               0D0000482
     110     242       0       0       0       0       0       000010000D0000483
     110       0    -671       1       0                               0D0000484
     110     243       0       0       0       0       0       000010000D0000485
     110       0    -671       1       0                               0D0000486
     110     244       0       0       0       0       0       000010000D0000487
     110       0    -671       1       0                               0D0000488
     402     245       0       0       0       0       0       000020000D0000489
     402       0       0       1       1                               0D0000490
     144     246       0       0       0       0       0       000020000D0000491
     144       0    -671       1       0                               0D0000492
     108     247       0       0       0       0       0       000010000D0000493
     108       0       0       1       0                               0D0000494
     142     248       0       0       0       0       0       000010500D0000495
     142       0       0       1       0                               0D0000496
     102     249       0       0       0       0       0       000010000D0000497
     102       0       0       1       0                               0D0000498
     110     250       0       0       0       0       0       000010000D0000499
     110       0       0       1       0                               0D0000500
     110     251       0       0       0       0       0       000010000D0000501
     110       0       0       1       0                               0D0000502
     110     252       0       0       0       0       0       000010000D0000503
     110       0       0       1       0                               0D0000504
     110     253       0       0       0       0       0       000010000D0000505
     110       0       0       1       0                               0D0000506
     144     254       0       0       0       0       0       000020000D0000507
     144       0    -671       1       0                               0D0000508
     108     255       0       0       0       0       0       000010000D0000509
     108       0       0       1       0                               0D0000510
     142     256       0       0       0       0       0       000010500D0000511
     142       0       0       1       0                               0D0000512
     102     257       0       0       0       0       0       000010000D0000513
     102       0       0       1       0                               0D0000514
     110     258       0       0       0       0       0       000010000D0000515
     110       0       0       1       0                               0D0000516
     110     259       0       0       0       0       0       000010000D0000517
     110       0       0       1       0                               0D0000518
     110     260       0       0       0       0       0       000010000D0000519
     110       0       0       1       0                               0D0000520
     110     261       0       0       0       0       0       000010000D0000521
     110       0       0       1       0                               0D0000522
     144     262       0       0       0       0       0       000020000D0000523
     144       0    -671       1       0                               0D0000524
     108     263       0       0       0       0       0       000010000D0000525
     108       0       0       1       0                               0D0000526
     142     264       0       0       0       0       0       000010500D0000527
     142       0       0       1       0                               0D0000528
     102     265       0       0       0       0       0       000010000D0000529
     102       0       0       1       0                               0D0000530
     110     266       0       0       0       0       0       000010000D0000531
     110       0       0       1       0                               0D0000532
     110     267       0       0       0       0       0       000010000D0000533
     110       0       0       1       0                               0D0000534
     110     268       0       0       0       0       0       000010000D0000535
     110       0    -671       1       0                               0D0000536
     110     269       0       0       0       0       0       000010000D0000537
     110       0       0       1       0                               0D0000538
     144     270       0       0       0       0       0       000020000D0000539
     144       0    -671       1       0                               0D0000540
     108     271       0       0       0       0       0       000010000D0000541
     108       0       0       1       0                               0D0000542
     142     272       0       0       0       0       0       000010500D0000543
     142       0       0       1       0                               0D0000544
     102     273       0       0       0       0       0       000010000D0000545
     102       0       0       1       0                               0D0000546
     110     274       0       0       0       0       0       000010000D0000547
     110       0       0       1       0                               0D0000548
     110     275       0       0       0       0       0       000010000D0000549
     110       0       0       1       0                               0D0000550
     110     276       0       0       0       0       0       000010000D0000551
     110       0    -671       1       0                               0D0000552
     110     277       0       0       0       0       0       000010000D0000553
     110       0       0       1       0                               0D0000554
     144     278       0       0       0       0       0       000020000D0000555
     144       0    -671       1       0                               0D0000556
     108     279       0       0       0       0       0       000010000D0000557
     108       0       0       1       0                               0D0000558
     142     280       0       0       0       0       0       000010500D0000559
     142       0       0       1       0                               0D0000560
     102     281       0       0       0       0       0       000010000D0000561
     102       0       0       1       0                               0D0000562
     110     282       0       0       0       0       0       000010000D0000563
     110       0       0       1       0                               0D0000564
     110     283       0       0       0       0       0       000010000D0000565
     110       0       0       1       0                               0D0000566
     110     284       0       0       0       0       0       000010000D0000567
     110       0    -671       1       0                               0D0000568
     110     285       0       0       0       0       0       000010000D0000569
     110       0       0       1       0                               0D0000570
     144     286       0       0       0       0       0       000020000D0000571
     144       0    -671       1       0                               0D0000572
     108     287       0       0       0       0       0       000010000D0000573
     108       0       0       1       0                               0D0000574
     142     288       0       0       0       0       0       000010500D0000575
     142       0       0       1       0                               0D0000576
     102     289       0       0       0       0       0       000010000D0000577
     102       0       0       1       0                               0D0000578
     110     290       0       0       0       0       0       000010000D0000579
     110       0    -671       1       0                               0D0000580
     110     291       0       0       0       0       0       000010000D0000581
     110       0       0       1       0                               0D0000582
     110     292       0       0       0       0       0       000010000D0000583
     110       0       0       1       0                               0D0000584
     110     293       0       0       0       0       0       000010000D0000585
     110       0       0       1       0                               0D0000586
     144     294       0       0       0       0       0       000020000D0000587
     144       0    -671       1       0                               0D0000588
     108     295       0       0       0       0       0       000010000D0000589
     108       0       0       1       0                               0D0000590
     142     296       0       0       0       0       0       000010500D0000591
     142       0       0       1       0                               0D0000592
     102     297       0       0       0       0       0       000010000D0000593
     102       0       0       1       0                               0D0000594
     110     298       0       0       0       0       0       000010000D0000595
     110       0       0       1       0                               0D0000596
     110     299       0       0       0       0       0       000010000D0000597
     110       0    -671       1       0                               0D0000598
     110     300       0       0       0       0       0       000010000D0000599
     110       0       0       1       0                               0D0000600
     110     301       0       0       0       0       0       000010000D0000601
     110       0    -671       1       0                               0D0000602
     144     302       0       0       0       0       0       000020000D0000603
     144       0    -671       1       0                               0D0000604
     108     303       0       0       0       0       0       000010000D0000605
     108       0       0       1       0                               0D0000606
     142     304       0       0       0       0       0       000010500D0000607
     142       0       0       1       0                               0D0000608
     102     305       0       0       0       0       0       000010000D0000609
     102       0       0       1       0                               0D0000610
     110     306       0       0       0       0       0       000010000D0000611
     110       0       0       1       0                               0D0000612
     110     307       0       0       0       0       0       000010000D0000613
     110       0    -671       1       0                               0D0000614
     110     308       0       0       0       0       0       000010000D0000615
     110       0       0       1       0                               0D0000616
     110     309       0       0       0       0       0       000010000D0000617
     110       0    -671       1       0                               0D0000618
     144     310       0       0       0       0       0       000020000D0000619
     144       0    -671       1       0                               0D0000620
     108     311       0       0       0       0       0       000010000D0000621
     108       0       0       1       0                               0D0000622
     142     312       0       0       0       0       0       000010500D0000623
     142       0       0       1       0                               0D0000624
     102     313       0       0       0       0       0       000010000D0000625
     102       0       0       1       0                               0D0000626
     110     314       0       0       0       0       0       000010000D0000627
     110       0    -671       1       0                               0D0000628
     110     315       0       0       0       0       0       000010000D0000629
     110       0    -671       1       0                               0D0000630
     110     316       0       0       0       0       0       000010000D0000631
     110       0    -671       1       0                               0D0000632
     110     317       0       0       0       0       0       000010000D0000633
     110       0    -671       1       0                               0D0000634
     110     318       0       0       0       0       0       000010000D0000635
     110       0    -671       1       0                               0D0000636
     110     319       0       0       0       0       0       000010000D0000637
     110       0    -671       1       0                               0D0000638
     110     320       0       0       0       0       0       000010000D0000639
     110       0    -671       1       0                               0D0000640
     110     321       0       0       0       0       0       000010000D0000641
     110       0    -671       1       0                               0D0000642
     144     322       0       0       0       0       0       000020000D0000643
     144       0    -671       1       0                               0D0000644
     108     323       0       0       0       0       0       000010000D0000645
     108       0       0       1       0                               0D0000646
     142     324       0       0       0       0       0       000010500D0000647
     142       0       0       1       0                               0D0000648
     102     325       0       0       0       0       0       000010000D0000649
     102       0       0       1       0                               0D0000650
     110     326       0       0       0       0       0       000010000D0000651
     110       0    -671       1       0                               0D0000652
     110     327       0       0       0       0       0       000010000D0000653
     110       0    -671       1       0                               0D0000654
     110     328       0       0       0       0       0       000010000D0000655
     110       0    -671       1       0                               0D0000656
     110     329       0       0       0       0       0       000010000D0000657
     110       0    -671       1       0                               0D0000658
     110     330       0       0       0       0       0       000010000D0000659
     110       0    -671       1       0                               0D0000660
     110     331       0       0       0       0       0       000010000D0000661
     110       0    -671       1       0                               0D0000662
     110     332       0       0       0       0       0       000010000D0000663
     110       0    -671       1       0                               0D0000664
     110     333       0       0       0       0       0       000010000D0000665
     110       0    -671       1       0                               0D0000666
     314     334       0       0       0       0       0       000000200D0000667
     314       0       0       1       0                               0D0000668
     314     335       0       0       0       0       0       000000200D0000669
     314       0       0       1       0                               0D0000670
     314     336       0       0       0       0       0       000000200D0000671
     314       0       0       1       0                               0D0000672
     406     337       0       0       0       0       0       000000000D0000673
     406       0       0       1      15                               0D0000674
402,4,3,101,311,489,0,1,673;                                     0000001P0000001
402,6,5,21,37,53,69,85;                                          0000003P0000002
144,7,1,0,9;                                                     0000005P0000003
108,0.,-1.,0.,2.515,0,-4.839,-2.515,2.5E-02,0.;                  0000007P0000004
142,0,7,0,11,2;                                                  0000009P0000005
102,4,13,15,17,19;                                               0000011P0000006
110,-4.839,-2.515,2.5E-02,4.839,-2.515,2.5E-02;                  0000013P0000007
110,4.839,-2.515,2.5E-02,4.839,-2.515,3.785;                     0000015P0000008
110,4.839,-2.515,3.785,-4.839,-2.515,3.785;                      0000017P0000009
110,-4.839,-2.515,3.785,-4.839,-2.515,2.5E-02;                   0000019P0000010
144,23,1,0,25;                                                   0000021P0000011
108,1.,0.,0.,4.839,0,4.839,-2.515,2.5E-02,0.;                    0000023P0000012
142,0,23,0,27,2;                                                 0000025P0000013
102,4,29,31,33,35;                                               0000027P0000014
110,4.839,-2.515,2.5E-02,4.839,2.515,2.5E-02;                    0000029P0000015
110,4.839,2.515,2.5E-02,4.839,2.515,3.785;                       0000031P0000016
110,4.839,2.515,3.785,4.839,-2.515,3.785;                        0000033P0000017
110,4.839,-2.515,3.785,4.839,-2.515,2.5E-02;                     0000035P0000018
144,39,1,0,41;                                                   0000037P0000019
108,0.,1.,0.,2.515,0,4.839,2.515,2.5E-02,0.;                     0000039P0000020
142,0,39,0,43,2;                                                 0000041P0000021
102,4,45,47,49,51;                                               0000043P0000022
110,4.839,2.515,2.5E-02,-4.839,2.515,2.5E-02;                    0000045P0000023
110,-4.839,2.515,2.5E-02,-4.839,2.515,3.785;                     0000047P0000024
110,-4.839,2.515,3.785,4.839,2.515,3.785;                        0000049P0000025
110,4.839,2.515,3.785,4.839,2.515,2.5E-02;                       0000051P0000026
144,55,1,0,57;                                                   0000053P0000027
108,-1.,0.,0.,4.839,0,-4.839,2.515,2.5E-02,0.;                   0000055P0000028
142,0,55,0,59,2;                                                 0000057P0000029
102,4,61,63,65,67;                                               0000059P0000030
110,-4.839,2.515,2.5E-02,-4.839,-2.515,2.5E-02;                  0000061P0000031
110,-4.839,-2.515,2.5E-02,-4.839,-2.515,3.785;                   0000063P0000032
110,-4.839,-2.515,3.785,-4.839,2.515,3.785;                      0000065P0000033
110,-4.839,2.515,3.785,-4.839,2.515,2.5E-02;                     0000067P0000034
144,71,1,0,73;                                                   0000069P0000035
108,0.,0.,-1.,-2.5E-02,0,-4.839,2.515,2.5E-02,0.;                0000071P0000036
142,0,71,0,75,2;                                                 0000073P0000037
102,4,77,79,81,83;                                               0000075P0000038
110,-4.839,2.515,2.5E-02,4.839,2.515,2.5E-02;                    0000077P0000039
110,4.839,2.515,2.5E-02,4.839,-2.515,2.5E-02;                    0000079P0000040
110,4.839,-2.515,2.5E-02,-4.839,-2.515,2.5E-02;                  0000081P0000041
110,-4.839,-2.515,2.5E-02,-4.839,2.515,2.5E-02;                  0000083P0000042
144,87,1,0,89;                                                   0000085P0000043
108,0.,0.,1.,3.785,0,-4.839,-2.515,3.785,0.;                     0000087P0000044
142,0,87,0,91,2;                                                 0000089P0000045
102,4,93,95,97,99;                                               0000091P0000046
110,-4.839,-2.515,3.785,4.839,-2.515,3.785;                      0000093P0000047
110,4.839,-2.515,3.785,4.839,2.515,3.785;                        0000095P0000048
110,4.839,2.515,3.785,-4.839,2.515,3.785;                        0000097P0000049
110,-4.839,2.515,3.785,-4.839,-2.515,3.785;                      0000099P0000050
402,12,103,119,135,151,167,187,207,227,247,263,279,295;          0000101P0000051
144,105,1,0,107;                                                 0000103P0000052
108,0.,0.,-1.,-2.3E-02,0,-0.853,2.517,2.3E-02,0.;                0000105P0000053
142,0,105,0,109,2;                                               0000107P0000054
102,4,111,113,115,117;                                           0000109P0000055
110,-0.853,2.517,2.3E-02,-0.64,2.517,2.3E-02;                    0000111P0000056
110,-0.64,2.517,2.3E-02,-0.64,-2.517,2.3E-02;                    0000113P0000057
110,-0.64,-2.517,2.3E-02,-0.853,-2.517,2.3E-02;                  0000115P0000058
110,-0.853,-2.517,2.3E-02,-0.853,2.517,2.3E-02;                  0000117P0000059
144,121,1,0,123;                                                 0000119P0000060
108,0.,-1.,0.,2.517,0,-0.853,-2.517,2.3E-02,0.;                  0000121P0000061
142,0,121,0,125,2;                                               0000123P0000062
102,4,127,129,131,133;                                           0000125P0000063
110,-0.853,-2.517,2.3E-02,-0.64,-2.517,2.3E-02;                  0000127P0000064
110,-0.64,-2.517,2.3E-02,-0.64,-2.517,3.787;                     0000129P0000065
110,-0.64,-2.517,3.787,-0.853,-2.517,3.787;                      0000131P0000066
110,-0.853,-2.517,3.787,-0.853,-2.517,2.3E-02;                   0000133P0000067
144,137,1,0,139;                                                 0000135P0000068
108,0.,1.,0.,2.517,0,-0.64,2.517,2.3E-02,0.;                     0000137P0000069
142,0,137,0,141,2;                                               0000139P0000070
102,4,143,145,147,149;                                           0000141P0000071
110,-0.64,2.517,2.3E-02,-0.853,2.517,2.3E-02;                    0000143P0000072
110,-0.853,2.517,2.3E-02,-0.853,2.517,3.787;                     0000145P0000073
110,-0.853,2.517,3.787,-0.64,2.517,3.787;                        0000147P0000074
110,-0.64,2.517,3.787,-0.64,2.517,2.3E-02;                       0000149P0000075
144,153,1,0,155;                                                 0000151P0000076
108,0.,0.,1.,3.787,0,-0.853,-2.517,3.787,0.;                     0000153P0000077
142,0,153,0,157,2;                                               0000155P0000078
102,4,159,161,163,165;                                           0000157P0000079
110,-0.853,-2.517,3.787,-0.64,-2.517,3.787;                      0000159P0000080
110,-0.64,-2.517,3.787,-0.64,2.517,3.787;                        0000161P0000081
110,-0.64,2.517,3.787,-0.853,2.517,3.787;                        0000163P0000082
110,-0.853,2.517,3.787,-0.853,-2.517,3.787;                      0000165P0000083
144,169,1,0,171;                                                 0000167P0000084
108,1.,0.,0.,-0.64,0,-0.64,-2.517,2.3E-02,0.;                    0000169P0000085
142,0,169,0,173,2;                                               0000171P0000086
102,6,175,177,179,181,183,185;                                   0000173P0000087
110,-0.64,-2.517,2.3E-02,-0.64,2.517,2.3E-02;                    0000175P0000088
110,-0.64,2.517,2.3E-02,-0.64,2.517,3.787;                       0000177P0000089
110,-0.64,2.517,3.787,-0.64,2.515,3.785;                         0000179P0000090
110,-0.64,2.515,3.785,-0.64,2.515,2.5E-02;                       0000181P0000091
110,-0.64,2.515,2.5E-02,-0.64,-2.515,2.5E-02;                    0000183P0000092
110,-0.64,-2.515,2.5E-02,-0.64,-2.517,2.3E-02;                   0000185P0000093
144,189,1,0,191;                                                 0000187P0000094
108,1.,0.,0.,-0.64,0,-0.64,-2.517,2.3E-02,0.;                    0000189P0000095
142,0,189,0,193,2;                                               0000191P0000096
102,6,195,197,199,201,203,205;                                   0000193P0000097
110,-0.64,-2.517,2.3E-02,-0.64,-2.515,2.5E-02;                   0000195P0000098
110,-0.64,-2.515,2.5E-02,-0.64,-2.515,3.785;                     0000197P0000099
110,-0.64,-2.515,3.785,-0.64,2.515,3.785;                        0000199P0000100
110,-0.64,2.515,3.785,-0.64,2.517,3.787;                         0000201P0000101
110,-0.64,2.517,3.787,-0.64,-2.517,3.787;                        0000203P0000102
110,-0.64,-2.517,3.787,-0.64,-2.517,2.3E-02;                     0000205P0000103
144,209,1,0,211;                                                 0000207P0000104
108,-1.,0.,0.,0.853,0,-0.853,2.517,2.3E-02,0.;                   0000209P0000105
142,0,209,0,213,2;                                               0000211P0000106
102,6,215,217,219,221,223,225;                                   0000213P0000107
110,-0.853,2.517,2.3E-02,-0.853,-2.517,2.3E-02;                  0000215P0000108
110,-0.853,-2.517,2.3E-02,-0.853,-2.515,2.5E-02;                 0000217P0000109
110,-0.853,-2.515,2.5E-02,-0.853,2.515,2.5E-02;                  0000219P0000110
110,-0.853,2.515,2.5E-02,-0.853,2.515,3.785;                     0000221P0000111
110,-0.853,2.515,3.785,-0.853,2.517,3.787;                       0000223P0000112
110,-0.853,2.517,3.787,-0.853,2.517,2.3E-02;                     0000225P0000113
144,229,1,0,231;                                                 0000227P0000114
108,-1.,0.,0.,0.853,0,-0.853,-2.515,2.5E-02,0.;                  0000229P0000115
142,0,229,0,233,2;                                               0000231P0000116
102,6,235,237,239,241,243,245;                                   0000233P0000117
110,-0.853,-2.515,2.5E-02,-0.853,-2.517,2.3E-02;                 0000235P0000118
110,-0.853,-2.517,2.3E-02,-0.853,-2.517,3.787;                   0000237P0000119
110,-0.853,-2.517,3.787,-0.853,2.517,3.787;                      0000239P0000120
110,-0.853,2.517,3.787,-0.853,2.515,3.785;                       0000241P0000121
110,-0.853,2.515,3.785,-0.853,-2.515,3.785;                      0000243P0000122
110,-0.853,-2.515,3.785,-0.853,-2.515,2.5E-02;                   0000245P0000123
144,249,1,0,251;                                                 0000247P0000124
108,0.,-1.,0.,-2.515,0,-0.853,2.515,2.5E-02,0.;                  0000249P0000125
142,0,249,0,253,2;                                               0000251P0000126
102,4,255,257,259,261;                                           0000253P0000127
110,-0.853,2.515,2.5E-02,-0.64,2.515,2.5E-02;                    0000255P0000128
110,-0.64,2.515,2.5E-02,-0.64,2.515,3.785;                       0000257P0000129
110,-0.64,2.515,3.785,-0.853,2.515,3.785;                        0000259P0000130
110,-0.853,2.515,3.785,-0.853,2.515,2.5E-02;                     0000261P0000131
144,265,1,0,267;                                                 0000263P0000132
108,0.,1.,0.,-2.515,0,-0.64,-2.515,2.5E-02,0.;                   0000265P0000133
142,0,265,0,269,2;                                               0000267P0000134
102,4,271,273,275,277;                                           0000269P0000135
110,-0.64,-2.515,2.5E-02,-0.853,-2.515,2.5E-02;                  0000271P0000136
110,-0.853,-2.515,2.5E-02,-0.853,-2.515,3.785;                   0000273P0000137
110,-0.853,-2.515,3.785,-0.64,-2.515,3.785;                      0000275P0000138
110,-0.64,-2.515,3.785,-0.64,-2.515,2.5E-02;                     0000277P0000139
144,281,1,0,283;                                                 0000279P0000140
108,0.,0.,1.,2.5E-02,0,-0.853,-2.515,2.5E-02,0.;                 0000281P0000141
142,0,281,0,285,2;                                               0000283P0000142
102,4,287,289,291,293;                                           0000285P0000143
110,-0.853,-2.515,2.5E-02,-0.64,-2.515,2.5E-02;                  0000287P0000144
110,-0.64,-2.515,2.5E-02,-0.64,2.515,2.5E-02;                    0000289P0000145
110,-0.64,2.515,2.5E-02,-0.853,2.515,2.5E-02;                    0000291P0000146
110,-0.853,2.515,2.5E-02,-0.853,-2.515,2.5E-02;                  0000293P0000147
144,297,1,0,299;                                                 0000295P0000148
108,0.,0.,-1.,-3.785,0,-0.64,-2.515,3.785,0.;                    0000297P0000149
142,0,297,0,301,2;                                               0000299P0000150
102,4,303,305,307,309;                                           0000301P0000151
110,-0.64,-2.515,3.785,-0.853,-2.515,3.785;                      0000303P0000152
110,-0.853,-2.515,3.785,-0.853,2.515,3.785;                      0000305P0000153
110,-0.853,2.515,3.785,-0.64,2.515,3.785;                        0000307P0000154
110,-0.64,2.515,3.785,-0.64,-2.515,3.785;                        0000309P0000155
402,10,313,329,345,361,377,393,409,425,441,465;                  0000311P0000156
144,315,1,0,317;                                                 0000313P0000157
108,0.,0.,1.,3.81,0,4.864,1.905,3.81,0.;                         0000315P0000158
142,0,315,0,319,2;                                               0000317P0000159
102,4,321,323,325,327;                                           0000319P0000160
110,4.864,1.905,3.81,1.067,1.905,3.81;                           0000321P0000161
110,1.067,1.905,3.81,1.067,-1.905,3.81;                          0000323P0000162
110,1.067,-1.905,3.81,4.864,-1.905,3.81;                         0000325P0000163
110,4.864,-1.905,3.81,4.864,1.905,3.81;                          0000327P0000164
144,331,1,0,333;                                                 0000329P0000165
108,0.,0.,1.,2.5E-02,0,4.839,1.905,2.5E-02,0.;                   0000331P0000166
142,0,331,0,335,2;                                               0000333P0000167
102,4,337,339,341,343;                                           0000335P0000168
110,4.839,1.905,2.5E-02,1.067,1.905,2.5E-02;                     0000337P0000169
110,1.067,1.905,2.5E-02,1.067,-1.905,2.5E-02;                    0000339P0000170
110,1.067,-1.905,2.5E-02,4.839,-1.905,2.5E-02;                   0000341P0000171
110,4.839,-1.905,2.5E-02,4.839,1.905,2.5E-02;                    0000343P0000172
144,347,1,0,349;                                                 0000345P0000173
108,1.,0.,0.,4.864,0,4.864,-1.905,0.,0.;                         0000347P0000174
142,0,347,0,351,2;                                               0000349P0000175
102,4,353,355,357,359;                                           0000351P0000176
110,4.864,-1.905,0.,4.864,1.905,0.;                              0000353P0000177
110,4.864,1.905,0.,4.864,1.905,3.81;                             0000355P0000178
110,4.864,1.905,3.81,4.864,-1.905,3.81;                          0000357P0000179
110,4.864,-1.905,3.81,4.864,-1.905,0.;                           0000359P0000180
144,363,1,0,365;                                                 0000361P0000181
108,-1.,0.,0.,-1.067,0,1.067,1.905,3.785,0.;                     0000363P0000182
142,0,363,0,367,2;                                               0000365P0000183
102,4,369,371,373,375;                                           0000367P0000184
110,1.067,1.905,3.785,1.067,-1.905,3.785;                        0000369P0000185
110,1.067,-1.905,3.785,1.067,-1.905,3.81;                        0000371P0000186
110,1.067,-1.905,3.81,1.067,1.905,3.81;                          0000373P0000187
110,1.067,1.905,3.81,1.067,1.905,3.785;                          0000375P0000188
144,379,1,0,381;                                                 0000377P0000189
108,-1.,0.,0.,-1.067,0,1.067,1.905,0.,0.;                        0000379P0000190
142,0,379,0,383,2;                                               0000381P0000191
102,4,385,387,389,391;                                           0000383P0000192
110,1.067,1.905,0.,1.067,-1.905,0.;                              0000385P0000193
110,1.067,-1.905,0.,1.067,-1.905,2.5E-02;                        0000387P0000194
110,1.067,-1.905,2.5E-02,1.067,1.905,2.5E-02;                    0000389P0000195
110,1.067,1.905,2.5E-02,1.067,1.905,0.;                          0000391P0000196
144,395,1,0,397;                                                 0000393P0000197
108,-1.,0.,0.,-4.839,0,4.839,1.905,2.5E-02,0.;                   0000395P0000198
142,0,395,0,399,2;                                               0000397P0000199
102,4,401,403,405,407;                                           0000399P0000200
110,4.839,1.905,2.5E-02,4.839,-1.905,2.5E-02;                    0000401P0000201
110,4.839,-1.905,2.5E-02,4.839,-1.905,3.785;                     0000403P0000202
110,4.839,-1.905,3.785,4.839,1.905,3.785;                        0000405P0000203
110,4.839,1.905,3.785,4.839,1.905,2.5E-02;                       0000407P0000204
144,411,1,0,413;                                                 0000409P0000205
108,0.,0.,-1.,-3.785,0,4.839,-1.905,3.785,0.;                    0000411P0000206
142,0,411,0,415,2;                                               0000413P0000207
102,4,417,419,421,423;                                           0000415P0000208
110,4.839,-1.905,3.785,1.067,-1.905,3.785;                       0000417P0000209
110,1.067,-1.905,3.785,1.067,1.905,3.785;                        0000419P0000210
110,1.067,1.905,3.785,4.839,1.905,3.785;                         0000421P0000211
110,4.839,1.905,3.785,4.839,-1.905,3.785;                        0000423P0000212
144,427,1,0,429;                                                 0000425P0000213
108,0.,0.,-1.,0.,0,4.864,-1.905,0.,0.;                           0000427P0000214
142,0,427,0,431,2;                                               0000429P0000215
102,4,433,435,437,439;                                           0000431P0000216
110,4.864,-1.905,0.,1.067,-1.905,0.;                             0000433P0000217
110,1.067,-1.905,0.,1.067,1.905,0.;                              0000435P0000218
110,1.067,1.905,0.,4.864,1.905,0.;                               0000437P0000219
110,4.864,1.905,0.,4.864,-1.905,0.;                              0000439P0000220
144,443,1,0,445;                                                 0000441P0000221
108,0.,1.,0.,1.905,0,4.864,1.905,0.,0.;                          0000443P0000222
142,0,443,0,447,2;                                               0000445P0000223
102,8,449,451,453,455,457,459,461,463;                           0000447P0000224
110,4.864,1.905,0.,1.067,1.905,0.;                               0000449P0000225
110,1.067,1.905,0.,1.067,1.905,2.5E-02;                          0000451P0000226
110,1.067,1.905,2.5E-02,4.839,1.905,2.5E-02;                     0000453P0000227
110,4.839,1.905,2.5E-02,4.839,1.905,3.785;                       0000455P0000228
110,4.839,1.905,3.785,1.067,1.905,3.785;                         0000457P0000229
110,1.067,1.905,3.785,1.067,1.905,3.81;                          0000459P0000230
110,1.067,1.905,3.81,4.864,1.905,3.81;                           0000461P0000231
110,4.864,1.905,3.81,4.864,1.905,0.;                             0000463P0000232
144,467,1,0,469;                                                 0000465P0000233
108,0.,-1.,0.,1.905,0,1.067,-1.905,0.,0.;                        0000467P0000234
142,0,467,0,471,2;                                               0000469P0000235
102,8,473,475,477,479,481,483,485,487;                           0000471P0000236
110,1.067,-1.905,0.,4.864,-1.905,0.;                             0000473P0000237
110,4.864,-1.905,0.,4.864,-1.905,3.81;                           0000475P0000238
110,4.864,-1.905,3.81,1.067,-1.905,3.81;                         0000477P0000239
110,1.067,-1.905,3.81,1.067,-1.905,3.785;                        0000479P0000240
110,1.067,-1.905,3.785,4.839,-1.905,3.785;                       0000481P0000241
110,4.839,-1.905,3.785,4.839,-1.905,2.5E-02;                     0000483P0000242
110,4.839,-1.905,2.5E-02,1.067,-1.905,2.5E-02;                   0000485P0000243
110,1.067,-1.905,2.5E-02,1.067,-1.905,0.;                        0000487P0000244
402,10,491,507,523,539,555,571,587,603,619,643;                  0000489P0000245
144,493,1,0,495;                                                 0000491P0000246
108,0.,0.,1.,3.81,0,-4.864,-1.905,3.81,0.;                       0000493P0000247
142,0,493,0,497,2;                                               0000495P0000248
102,4,499,501,503,505;                                           0000497P0000249
110,-4.864,-1.905,3.81,-1.067,-1.905,3.81;                       0000499P0000250
110,-1.067,-1.905,3.81,-1.067,1.905,3.81;                        0000501P0000251
110,-1.067,1.905,3.81,-4.864,1.905,3.81;                         0000503P0000252
110,-4.864,1.905,3.81,-4.864,-1.905,3.81;                        0000505P0000253
144,509,1,0,511;                                                 0000507P0000254
108,0.,0.,1.,2.5E-02,0,-4.839,-1.905,2.5E-02,0.;                 0000509P0000255
142,0,509,0,513,2;                                               0000511P0000256
102,4,515,517,519,521;                                           0000513P0000257
110,-4.839,-1.905,2.5E-02,-1.067,-1.905,2.5E-02;                 0000515P0000258
110,-1.067,-1.905,2.5E-02,-1.067,1.905,2.5E-02;                  0000517P0000259
110,-1.067,1.905,2.5E-02,-4.839,1.905,2.5E-02;                   0000519P0000260
110,-4.839,1.905,2.5E-02,-4.839,-1.905,2.5E-02;                  0000521P0000261
144,525,1,0,527;                                                 0000523P0000262
108,-1.,0.,0.,4.864,0,-4.864,1.905,0.,0.;                        0000525P0000263
142,0,525,0,529,2;                                               0000527P0000264
102,4,531,533,535,537;                                           0000529P0000265
110,-4.864,1.905,0.,-4.864,-1.905,0.;                            0000531P0000266
110,-4.864,-1.905,0.,-4.864,-1.905,3.81;                         0000533P0000267
110,-4.864,-1.905,3.81,-4.864,1.905,3.81;                        0000535P0000268
110,-4.864,1.905,3.81,-4.864,1.905,0.;                           0000537P0000269
144,541,1,0,543;                                                 0000539P0000270
108,1.,0.,0.,-1.067,0,-1.067,-1.905,3.785,0.;                    0000541P0000271
142,0,541,0,545,2;                                               0000543P0000272
102,4,547,549,551,553;                                           0000545P0000273
110,-1.067,-1.905,3.785,-1.067,1.905,3.785;                      0000547P0000274
110,-1.067,1.905,3.785,-1.067,1.905,3.81;                        0000549P0000275
110,-1.067,1.905,3.81,-1.067,-1.905,3.81;                        0000551P0000276
110,-1.067,-1.905,3.81,-1.067,-1.905,3.785;                      0000553P0000277
144,557,1,0,559;                                                 0000555P0000278
108,1.,0.,0.,-1.067,0,-1.067,-1.905,0.,0.;                       0000557P0000279
142,0,557,0,561,2;                                               0000559P0000280
102,4,563,565,567,569;                                           0000561P0000281
110,-1.067,-1.905,0.,-1.067,1.905,0.;                            0000563P0000282
110,-1.067,1.905,0.,-1.067,1.905,2.5E-02;                        0000565P0000283
110,-1.067,1.905,2.5E-02,-1.067,-1.905,2.5E-02;                  0000567P0000284
110,-1.067,-1.905,2.5E-02,-1.067,-1.905,0.;                      0000569P0000285
144,573,1,0,575;                                                 0000571P0000286
108,1.,0.,0.,-4.839,0,-4.839,-1.905,2.5E-02,0.;                  0000573P0000287
142,0,573,0,577,2;                                               0000575P0000288
102,4,579,581,583,585;                                           0000577P0000289
110,-4.839,-1.905,2.5E-02,-4.839,1.905,2.5E-02;                  0000579P0000290
110,-4.839,1.905,2.5E-02,-4.839,1.905,3.785;                     0000581P0000291
110,-4.839,1.905,3.785,-4.839,-1.905,3.785;                      0000583P0000292
110,-4.839,-1.905,3.785,-4.839,-1.905,2.5E-02;                   0000585P0000293
144,589,1,0,591;                                                 0000587P0000294
108,0.,0.,-1.,-3.785,0,-4.839,1.905,3.785,0.;                    0000589P0000295
142,0,589,0,593,2;                                               0000591P0000296
102,4,595,597,599,601;                                           0000593P0000297
110,-4.839,1.905,3.785,-1.067,1.905,3.785;                       0000595P0000298
110,-1.067,1.905,3.785,-1.067,-1.905,3.785;                      0000597P0000299
110,-1.067,-1.905,3.785,-4.839,-1.905,3.785;                     0000599P0000300
110,-4.839,-1.905,3.785,-4.839,1.905,3.785;                      0000601P0000301
144,605,1,0,607;                                                 0000603P0000302
108,0.,0.,-1.,0.,0,-4.864,1.905,0.,0.;                           0000605P0000303
142,0,605,0,609,2;                                               0000607P0000304
102,4,611,613,615,617;                                           0000609P0000305
110,-4.864,1.905,0.,-1.067,1.905,0.;                             0000611P0000306
110,-1.067,1.905,0.,-1.067,-1.905,0.;                            0000613P0000307
110,-1.067,-1.905,0.,-4.864,-1.905,0.;                           0000615P0000308
110,-4.864,-1.905,0.,-4.864,1.905,0.;                            0000617P0000309
144,621,1,0,623;                                                 0000619P0000310
108,0.,-1.,0.,1.905,0,-4.864,-1.905,0.,0.;                       0000621P0000311
142,0,621,0,625,2;                                               0000623P0000312
102,8,627,629,631,633,635,637,639,641;                           0000625P0000313
110,-4.864,-1.905,0.,-1.067,-1.905,0.;                           0000627P0000314
110,-1.067,-1.905,0.,-1.067,-1.905,2.5E-02;                      0000629P0000315
110,-1.067,-1.905,2.5E-02,-4.839,-1.905,2.5E-02;                 0000631P0000316
110,-4.839,-1.905,2.5E-02,-4.839,-1.905,3.785;                   0000633P0000317
110,-4.839,-1.905,3.785,-1.067,-1.905,3.785;                     0000635P0000318
110,-1.067,-1.905,3.785,-1.067,-1.905,3.81;                      0000637P0000319
110,-1.067,-1.905,3.81,-4.864,-1.905,3.81;                       0000639P0000320
110,-4.864,-1.905,3.81,-4.864,-1.905,0.;                         0000641P0000321
144,645,1,0,647;                                                 0000643P0000322
108,0.,1.,0.,1.905,0,-1.067,1.905,0.,0.;                         0000645P0000323
142,0,645,0,649,2;                                               0000647P0000324
102,8,651,653,655,657,659,661,663,665;                           0000649P0000325
110,-1.067,1.905,0.,-4.864,1.905,0.;                             0000651P0000326
110,-4.864,1.905,0.,-4.864,1.905,3.81;                           0000653P0000327
110,-4.864,1.905,3.81,-1.067,1.905,3.81;                         0000655P0000328
110,-1.067,1.905,3.81,-1.067,1.905,3.785;                        0000657P0000329
110,-1.067,1.905,3.785,-4.839,1.905,3.785;                       0000659P0000330
110,-4.839,1.905,3.785,-4.839,1.905,2.5E-02;                     0000661P0000331
110,-4.839,1.905,2.5E-02,-1.067,1.905,2.5E-02;                   0000663P0000332
110,-1.067,1.905,2.5E-02,-1.067,1.905,0.;                        0000665P0000333
314,45.90000013,34.500000578,17.599999733,4HTAN4;                0000667P0000334
314,97.999999559,70.599999383,17.599999733,10HGOLDENROD1;        0000669P0000335
314,72.499999117,72.499999117,72.499999117,6HGRAY72;             0000671P0000336
406,1,4Hpart;                                                    0000673P0000337
S      1G      4D    674P    337                                        T0000001
